<?xml version="1.0" encoding="utf-8"?>
<!-- Generator: Adobe Illustrator 16.0.0, SVG Export Plug-In . SVG Version: 6.00 Build 0)  -->
<!DOCTYPE svg PUBLIC "-//W3C//DTD SVG 1.1//EN" "http://www.w3.org/Graphics/SVG/1.1/DTD/svg11.dtd">
<svg version="1.1" id="Layer_1" xmlns="http://www.w3.org/2000/svg" xmlns:xlink="http://www.w3.org/1999/xlink" x="0px" y="0px"
	 width="37.571px" height="60px" viewBox="0 0 37.571 60" enable-background="new 0 0 37.571 60" xml:space="preserve">
<g>
	<path fill="none" stroke="#6BCBDA" stroke-width="2" stroke-linejoin="round" stroke-miterlimit="10" d="M14,20c0-2.066,2-4,4-4
		c2.09,0,4,1.911,4,4v15l11.887,3.827c2.494,0.8,3.059,3.75,2.47,6.304L34,59H14L3.523,43.869c-1.146-1.75-1.178-5.042,1.344-5.042
		c2.522,0,4.167,0.403,9.21,8.173L14,20z"/>
	<path fill="none" stroke="#6BCBDA" stroke-width="2" stroke-linecap="round" stroke-linejoin="round" stroke-miterlimit="10" d="
		M6.171,31.133c-6.894-6.893-6.894-18.07,0-24.963c6.893-6.894,18.071-6.893,24.964,0c6.894,6.894,6.894,18.07,0,24.963"/>
</g>
</svg>
